<svg width="50.573mm" height="50mm" version="1.1" viewBox="0 0 50.573 50" xmlns="http://www.w3.org/2000/svg">
 <g transform="translate(-69.245 -104.65)">
  <path d="m90.686 104.65a25.321 25.321 0 0 0-15.894 9.1414l0.96295 0.55666a3.8441 3.8441 0 0 1 1.4064 5.2524 3.8441 3.8441 0 0 1-5.2504 1.4064l-0.96299-0.55665a25.321 25.321 0 0 0 0.03024 18.337l0.93369-0.53911a3.8441 3.8441 0 0 1 5.2504 1.4064 3.8441 3.8441 0 0 1-1.4064 5.2524l-0.92194 0.53326a25.321 25.321 0 0 0 7.0357 6.1157 25.321 25.321 0 0 0 8.8171 3.0921v-1.1212a3.8441 3.8441 0 0 1 3.844-3.844 3.8441 3.8441 0 0 1 3.844 3.844v1.1231a25.321 25.321 0 0 0 15.906-9.1804l-0.97485-0.56255a3.8441 3.8441 0 0 1-1.4064-5.2524 3.8441 3.8441 0 0 1 5.2504-1.4064l0.96295 0.55668a25.321 25.321 0 0 0-0.0265-18.337l-0.93562 0.53907a3.8441 3.8441 0 0 1-5.2504-1.4064 3.8441 3.8441 0 0 1 1.4064-5.2524l0.92197-0.53322a25.321 25.321 0 0 0-7.0357-6.1157 25.321 25.321 0 0 0-8.8171-3.0374v1.0665a3.8441 3.8441 0 0 1-3.8441 3.8441 3.8441 3.8441 0 0 1-3.844-3.8441zm3.844 6.4654a18.535 18.535 0 0 1 18.537 18.535 18.535 18.535 0 0 1-18.537 18.535 18.535 18.535 0 0 1-18.535-18.535 18.535 18.535 0 0 1 18.535-18.535zm-1.84 0.42776v1.0997h3.68v-1.0997zm-3.8636 0.81841-3.3616 1.4943 0.44727 1.0059 3.3636-1.4942zm11.407 0-0.44927 1.006 3.3635 1.4942 0.44731-1.0059zm-5.7036 0.67977a16.609 16.609 0 0 0-16.609 16.609 16.609 16.609 0 0 0 16.609 16.609 16.609 16.609 0 0 0 16.609-16.609 16.609 16.609 0 0 0-16.609-16.609zm0 1.9689a14.64 14.64 0 0 1 14.64 14.64 14.64 14.64 0 0 1-14.64 14.64 14.64 14.64 0 0 1-14.64-14.64 14.64 14.64 0 0 1 14.64-14.64zm-12.261 1.1622-2.4631 2.7287 0.82037 0.73638 2.4631-2.7307zm24.521 0-0.82038 0.73442 2.4631 2.7307 0.82038-0.73638zm-28.959 6.1411-1.1368 3.4924 1.0489 0.3398 1.1368-3.4924zm33.397 0-1.0489 0.33981 1.1368 3.4924 1.0489-0.3398zm-33.85 7.2955-1.0958 0.11528 0.38479 3.6526 1.0958-0.11529zm34.303 0-0.38483 3.6526 1.0958 0.11529 0.38479-3.6526zm-32.84 6.9654-0.95516 0.54886 1.8419 3.1819 0.9532-0.55079zm31.377 0-1.84 3.18 0.9532 0.55079 1.8419-3.1819zm-27.201 5.768-0.6485 0.88876 2.9788 2.1603 0.6485-0.89072zm23.025 0-2.9788 2.1584 0.64851 0.89072 2.9787-2.1603zm-16.859 3.5745-0.22868 1.0763 3.5999 0.76372 0.23057-1.0763zm10.692 0-3.6018 0.76371 0.23057 1.0763 3.5999-0.76372z"/>
 </g>
</svg>
