<svg width="49.999mm" height="50.166mm" version="1.1" viewBox="0 0 49.999 50.166" xmlns="http://www.w3.org/2000/svg">
 <g transform="translate(-78.423 -111.69)">
  <path d="m103.5 111.7a25.082 25.082 0 0 0-6.7089 0.93772c-0.01425 0.066-0.02375 0.0717-0.038 0.13729-0.11401 0.49166 0.02375 1.0654 0.02375 1.0654l0.65052 2.0768-1.2397 0.47124-0.79046 0.29927-1.2397 0.47124-0.89112-1.9884s-0.27647-0.51993-0.68733-0.81255c-0.0475-0.0333-0.05225-0.0333-0.09833-0.0637a25.082 25.082 0 0 0-6.1346 4.2616c0.0095 0.0427 0.0095 0.0485 0.019 0.0907 0.12778 0.4881 0.51798 0.9304 0.51798 0.9304l1.5416 1.5367-0.88124 0.9942-0.55975 0.63332-0.88129 0.99178-1.711-1.3452s-0.48701-0.33158-0.98684-0.39999c-0.038-5e-3 -0.038-3e-3 -0.07601-0.01a25.082 25.082 0 0 0-3.4834 6.6329c0.02375 0.0285 0.0285 0.0332 0.05178 0.0589 0.34012 0.37243 0.89112 0.58425 0.89112 0.58425l2.0792 0.64315-0.31685 1.2888-0.20379 0.82239-0.31685 1.2863-2.1406-0.39523s-0.58615-0.0689-1.0605 0.10308c-0.05795 0.019-0.06223 0.0285-0.12018 0.0489a25.082 25.082 0 0 0-0.28977 3.7264 25.082 25.082 0 0 0 0.28977 3.724c0.05795 0.0238 0.06223 0.0285 0.12018 0.0489 0.47456 0.17149 1.0605 0.10546 1.0605 0.10546l2.1406-0.39523 0.31685 1.2863 0.20379 0.82239 0.31685 1.2888-2.0792 0.64315s-0.5509 0.21187-0.89112 0.58425c-0.02375 0.0285-0.0285 0.0333-0.05178 0.0589a25.082 25.082 0 0 0 3.4834 6.6329c0.038-5e-3 0.038-2e-3 0.07601-0.01 0.49988-0.0684 0.98684-0.39998 0.98684-0.39998l1.711-1.3452 0.88129 0.99173 0.56217 0.63337 0.87882 0.9942-1.5416 1.5367s-0.38953 0.44274-0.51798 0.93041c-0.0095 0.0427-0.0095 0.048-0.019 0.0907a25.082 25.082 0 0 0 6.1346 4.2616c0.0475-0.0333 0.0513-0.0333 0.09596-0.0637 0.41043-0.2931 0.6898-0.81255 0.6898-0.81255l0.89112-1.9884 1.2397 0.47124 0.79046 0.29927 1.2397 0.47124-0.65052 2.0768s-0.13776 0.5738-0.02375 1.0654c0.01425 0.0646 0.019 0.0703 0.038 0.13491a25.082 25.082 0 0 0 6.7115 0.94019 25.082 25.082 0 0 0 0.68002-0.0489c0.0285-0.056 0.038-0.0599 0.0636-0.11543 0.22802-0.45033 0.23323-1.0408 0.23323-1.0408l-0.13491-2.1725 1.3158-0.15961 0.842-0.10309 1.3158-0.15961 0.38763 2.143s0.14489 0.57009 0.47361 0.9525c0.0332 0.0428 0.0427 0.0428 0.076 0.0836a25.082 25.082 0 0 0 6.979-2.634c-1.9e-4 -0.0599 4e-3 -0.066 2e-3 -0.12541-0.01-0.50448-0.27742-1.0286-0.27742-1.0286l-1.1292-1.8608 1.09-0.75359 0.69721-0.48117 1.0924-0.75359 1.3403 1.7159s0.39286 0.43989 0.86162 0.62601c0.0746 0.0285 0.0841 0.0285 0.15961 0.0565a25.082 25.082 0 0 0 4.9342-5.5307c-0.0428-0.0831-0.0428-0.0945-0.0884-0.17671-0.24132-0.44321-0.72419-0.78063-0.72419-0.78063l-1.8657-1.1218 0.61617-1.1759 0.39523-0.7487 0.61612-1.1759 1.9835 0.89848s0.55143 0.20522 1.0531 0.15201c0.0736-0.01 0.0808-0.0142 0.15486-0.0237a25.082 25.082 0 0 0 1.7724-7.2196c-0.0584-0.0428-0.0617-0.0494-0.12018-0.0884-0.41946-0.28027-1.004-0.35343-1.004-0.35343l-2.1725-0.12778v-3.5006l2.1725-0.12778s0.58458-0.0732 1.004-0.35343c0.0584-0.038 0.0618-0.048 0.12018-0.0884a25.082 25.082 0 0 0-1.7724-7.2196c-0.0736-0.01-0.0812-0.0143-0.15486-0.0237-0.50173-0.0532-1.0531 0.15201-1.0531 0.15201l-1.9835 0.89601-0.61612-1.1734-0.39523-0.74875-0.61617-1.1759 1.8657-1.1218s0.48287-0.33728 0.72419-0.78063c0.0427-0.0822 0.0475-0.0936 0.0884-0.17671a25.082 25.082 0 0 0-4.9342-5.5332c-0.0765 0.0285-0.0864 0.0285-0.16198 0.0589-0.46886 0.18621-0.86167 0.626-0.86167 0.626l-1.3403 1.7159-1.0924-0.7536-0.69716-0.48116-1.09-0.75365 1.1293-1.8607s0.26792-0.52421 0.27742-1.0286c1e-3 -0.0594-3e-3 -0.0656-2e-3 -0.12541a25.082 25.082 0 0 0-6.9766-2.634c-0.0332 0.038-0.0427 0.0427-0.076 0.0836-0.32873 0.38288-0.47124 0.95245-0.47124 0.95245l-0.39048 2.1431-1.3158-0.15961-0.842-0.10308-1.3158-0.15961 0.13492-2.1725s-3e-3 -0.59052-0.23087-1.0409c-0.0285-0.0556-0.0332-0.0598-0.0637-0.11543a25.082 25.082 0 0 0-0.68243-0.0489zm0.42468 5.5479a19.366 19.366 0 0 1 19.366 19.366 19.366 19.366 0 0 1-19.366 19.366 19.366 19.366 0 0 1-19.366-19.366 19.366 19.366 0 0 1 19.366-19.366z"/>
 </g>
</svg>
