<svg width="50mm" height="50.002mm" version="1.1" viewBox="0 0 50 50.002" xmlns="http://www.w3.org/2000/svg">
 <g transform="translate(-80.455 -100.59)">
  <path d="m118.19 104.05-0.27362 2.8515a22.503 22.503 0 0 1 6.2562 6.2942l2.8322-0.30535a25.018 25.018 0 0 0-8.8148-8.8402zm-6.4758-2.697a25.018 25.018 0 0 0-12.436 0.0373l1.7822 2.1616a22.503 22.503 0 0 1 8.8736 0.0216l1.7876-2.2183a25.018 25.018 0 0 0-6e-3 -3e-3zm17.959 18.017-2.2106 1.8212a22.503 22.503 0 0 1-0.0216 8.8735l2.2157 1.7866a25.018 25.018 0 0 0 0.0154-12.481zm-36.909-15.294a25.018 25.018 0 0 0-8.8421 8.7485l2.848 0.27516a22.503 22.503 0 0 1 6.2952-6.2588zm34.2 34.244-2.8516-0.27361a22.503 22.503 0 0 1-6.2942 6.2563l0.30597 2.8321a25.018 25.018 0 0 0 8.8399-8.8148zm-45.739-19.026a25.018 25.018 0 0 0 0.03174 12.44l2.163-1.7785a22.503 22.503 0 0 1 0.02157-8.8735zm28.597 28.301a22.503 22.503 0 0 1-8.8726-0.0277l-1.7852 2.2195a25.018 25.018 0 0 0 12.481 0.0216zm-23.11-9.643-2.7663 0.29734a25.018 25.018 0 0 0 8.7474 8.8444l0.27362-2.8516a22.503 22.503 0 0 1-6.2548-6.2903zm38.545-12.364a19.802 19.802 0 0 1-19.802 19.802 19.802 19.802 0 0 1-19.802-19.802 19.802 19.802 0 0 1 19.802-19.802 19.802 19.802 0 0 1 19.802 19.802z" fill-rule="evenodd"/>
 </g>
</svg>
