<svg width="50mm" height="50.002mm" version="1.1" viewBox="0 0 50 50.002" xmlns="http://www.w3.org/2000/svg">
 <g transform="translate(-58.521 -56.139)">
  <path d="m96.255 59.602-0.2736 2.8515a22.503 22.503 0 0 1 6.2562 6.2942l2.8321-0.30538a25.018 25.018 0 0 0-8.8148-8.8402zm-6.4757-2.697a25.018 25.018 0 0 0-12.436 0.0373l1.7822 2.1616a22.503 22.503 0 0 1 8.8736 0.02088l1.7876-2.2182a25.018 25.018 0 0 0-6e-3 -0.0027zm17.959 18.017-2.2106 1.8212a22.503 22.503 0 0 1-0.0209 8.8735l2.2157 1.7866a25.018 25.018 0 0 0 0.0149-12.481zm-36.909-15.294a25.018 25.018 0 0 0-8.8419 8.7485l2.8479 0.27509a22.503 22.503 0 0 1 6.2952-6.2587zm34.199 34.244-2.8516-0.2736a22.503 22.503 0 0 1-6.294 6.2562l0.30592 2.8321a25.018 25.018 0 0 0 8.8398-8.8148zm-45.739-19.026a25.018 25.018 0 0 0 0.03193 12.44l2.163-1.7785a22.503 22.503 0 0 1 0.02089-8.8735zm28.597 28.301a22.503 22.503 0 0 1-8.8725-0.0268l-1.7851 2.2194a25.018 25.018 0 0 0 12.481 0.0209zm-23.109-9.643-2.7662 0.29747a25.018 25.018 0 0 0 8.7473 8.8443l0.2736-2.8515a22.503 22.503 0 0 1-6.2547-6.2903z" fill-rule="evenodd"/>
 </g>
</svg>
