<svg width="50mm" height="50.019mm" version="1.1" viewBox="0 0 50 50.019" xmlns="http://www.w3.org/2000/svg">
 <g transform="translate(-66.166 -103.2)">
  <path d="m95.034 103.2v0.82386a3.8747 3.8747 0 0 1-3.8747 3.8747 3.8747 3.8747 0 0 1-3.8747-3.8747v-0.80961a25.311 25.311 0 0 0-5.2469 1.4507l0.38225 0.66236a3.8747 3.8747 0 0 1-1.4174 5.2921 3.8747 3.8747 0 0 1-5.2945-1.4197l-0.38454-0.67192a25.311 25.311 0 0 0-3.8438 3.8462l0.67187 0.38684a3.8747 3.8747 0 0 1 1.4174 5.2921 3.8747 3.8747 0 0 1-5.2921 1.4198l-0.66002-0.38224a25.311 25.311 0 0 0-1.4506 5.2446h0.80722a3.8747 3.8747 0 0 1 3.8747 3.8747 3.8747 3.8747 0 0 1-3.8747 3.8747h-0.80722a25.311 25.311 0 0 0 1.4506 5.2446l0.66002-0.38225a3.8747 3.8747 0 0 1 5.2921 1.4198 3.8747 3.8747 0 0 1-1.4174 5.292l-0.67187 0.38959a25.311 25.311 0 0 0 3.8438 3.8438l0.38684-0.67431a3.8747 3.8747 0 0 1 5.2921-1.4174 3.8747 3.8747 0 0 1 1.4174 5.2944l-0.38225 0.66002a25.311 25.311 0 0 0 5.2446 1.4506v-0.80957a3.8747 3.8747 0 0 1 3.877-3.8747 3.8747 3.8747 0 0 1 3.8747 3.8747v0.82381a25.311 25.311 0 0 0 5.2707-1.4174l-0.40843-0.70991a3.8747 3.8747 0 0 1 1.4174-5.292 3.8747 3.8747 0 0 1 5.2944 1.4174l0.41074 0.71226a25.311 25.311 0 0 0 3.858-3.8604l-0.70986-0.41074a3.8747 3.8747 0 0 1-1.4174-5.292 3.8747 3.8747 0 0 1 5.2921-1.4198l0.70987 0.40844a25.311 25.311 0 0 0 1.415-5.2707h-0.82146a3.8747 3.8747 0 0 1-3.8747-3.8747 3.8747 3.8747 0 0 1 3.8747-3.8747h0.82146a25.311 25.311 0 0 0-1.415-5.2707l-0.70987 0.40844a3.8747 3.8747 0 0 1-5.2921-1.4198 3.8747 3.8747 0 0 1 1.4174-5.2921l0.70986-0.41074a25.311 25.311 0 0 0-3.8604-3.8604l-0.41074 0.71225a3.8747 3.8747 0 0 1-5.2921 1.4174 3.8747 3.8747 0 0 1-1.4174-5.2944l0.40843-0.70753a25.311 25.311 0 0 0-5.2707-1.4174zm-3.8747 6.2798a18.73 18.73 0 0 1 18.73 18.73 18.73 18.73 0 0 1-18.73 18.73 18.73 18.73 0 0 1-18.732-18.73 18.73 18.73 0 0 1 18.732-18.73zm-1.9658 0.60539-3.5945 0.7645 0.22788 1.0779 3.5969-0.76449zm3.9435 0-0.23018 1.0779 3.5969 0.76449 0.23018-1.0779zm-11.142 2.3694-2.9748 2.1605 0.64812 0.89029 2.9749-2.1605zm18.341 0-0.64578 0.89034 2.9725 2.1605 0.64813-0.89029zm-23.953 5.0902-1.8376 3.1838 0.95204 0.55081 1.84-3.1838zm29.566 0-0.95204 0.55082 1.8376 3.1838 0.95204-0.55081zm-32.621 6.935-0.38454 3.6562 1.0945 0.11394 0.38454-3.6562zm35.679 0-1.0945 0.11394 0.38454 3.6562 1.0945-0.11394zm-34.606 7.2365-1.047 0.34182 1.1372 3.4948 1.047-0.33952zm33.538 0-1.1372 3.4972 1.047 0.33952 1.1372-3.4972zm-2.8799 6.5148-2.4597 2.7327 0.81673 0.73596 2.462-2.7303zm-27.778 2e-3 -0.81908 0.73601 2.4596 2.7327 0.81912-0.73835zm5.2802 4.7792-0.44886 1.0067 3.3595 1.4957 0.44611-1.0066zm17.218 0-3.3595 1.4958 0.44887 1.0043 3.3595-1.4934zm-10.451 2.2199v1.1016h3.6776l0.0024-1.1016z" stroke-width=".2"/>
 </g>
</svg>
