<svg width="50mm" height="49.96mm" version="1.1" viewBox="0 0 50 49.96" xmlns="http://www.w3.org/2000/svg">
 <g transform="translate(-74.41 -111.2)">
  <path d="m117.09 118.49a25.029 25.025 45 0 0-6.0479-4.4238l-0.84284 3.1514a22.777 22.773 45 0 0-5.154-2.1368 22.777 22.773 45 0 0-5.5258-0.7261l0.8389-3.1314a25.029 25.025 45 0 0-14.27 3.8413l2.2764 2.2763a22.777 22.773 45 0 0-4.4252 3.3944 22.777 22.773 45 0 0-3.3917 4.4225l-2.2763-2.2763a25.029 25.025 45 0 0-3.84 14.269l3.1313-0.83887a22.777 22.773 45 0 0 0.72481 5.5298 22.777 22.773 45 0 0 2.1367 5.1513l-3.1527 0.84422a25.029 25.025 45 0 0 4.4265 6.0452 25.029 25.025 45 0 0 6.0465 4.4279l0.84423-3.1528a22.777 22.773 45 0 0 5.1513 2.1368 22.777 22.773 45 0 0 5.5298 0.72482l-0.83886 3.1313a25.029 25.025 45 0 0 14.27-3.8386l-2.2803-2.2804a22.777 22.773 45 0 0 4.4238-3.393 22.777 22.773 45 0 0 3.393-4.4238l2.3206 2.3206a25.029 25.025 45 0 0 3.8373-14.322l-3.1689 0.84959a22.777 22.773 45 0 0-0.72746-5.5325 22.777 22.773 45 0 0-2.1354-5.1473l3.1729-0.85091a25.029 25.025 45 0 0-4.4467-6.0412zm-5.413 1.2335-1.02 1.6562c1.3515 1.0409 2.563 2.2519 3.6051 3.6024l1.6495-1.0214a20.561 20.561 0 0 1 2.3246 4.1232l-1.671 0.90329c0.65014 1.5772 1.0949 3.2312 1.322 4.9218l1.9019-0.0577a20.561 20.561 0 0 1-1e-3 4.7339l-1.9099-0.0551c-0.22553 1.6909-0.66814 3.3441-1.3167 4.9218l1.667 0.89657a20.561 20.561 0 0 1-2.3287 4.1218l-1.6549-1.0214c-1.0409 1.3516-2.2532 2.5643-3.6038 3.6064l1.0215 1.6495a20.561 20.561 0 0 1-4.1245 2.3233l-0.90204-1.6696c-1.5772 0.64996-3.2312 1.0922-4.9218 1.3194l0.0577 1.9045a20.561 20.561 0 0 1-4.7312-1e-3l0.05363-1.9113c-1.6909-0.22553-3.3468-0.6681-4.9245-1.3167l-0.89793 1.6683a20.561 20.561 0 0 1-4.1191-2.3287l1.0201-1.6562c-1.3516-1.0409-2.5618-2.2532-3.6038-3.6038l-1.6508 1.0227a20.561 20.561 0 0 1-2.3232-4.1246l1.671-0.90325c-0.6501-1.5771-1.0949-3.2312-1.322-4.9218l-1.9045 0.0577a20.561 20.561 0 0 1 0.0027-4.7325l1.9099 0.0551c0.22553-1.6909 0.66946-3.3454 1.318-4.9231l-1.6683-0.89793a20.561 20.561 0 0 1 2.3301-4.1205l1.6549 1.0214c1.0409-1.3515 2.2519-2.5631 3.6024-3.6051l-1.0201-1.6509a20.561 20.561 0 0 1 4.1245-2.3233l0.90068 1.671c1.5772-0.64999 3.2325-1.0935 4.9231-1.3207l-0.05767-1.9046a20.561 20.561 0 0 1 4.7325 3e-3l-0.0551 1.9099c1.6909 0.22553 3.3468 0.66814 4.9245 1.3167l0.89653-1.667a20.561 20.561 0 0 1 4.1192 2.3287z"/>
 </g>
</svg>
