<svg width="50mm" height="51.037mm" version="1.1" viewBox="0 0 50 51.037" xmlns="http://www.w3.org/2000/svg">
 <path d="m24.971 0a25.519 25.519 0 0 0-8.1992 1.408l2.3256 4.9631s-2.539 0.70027-4.2404 1.6826c-1.7014 0.98232-3.581 2.7713-3.581 2.7713l-3.1445-4.4633a25.519 25.519 0 0 0-8.1311 14.202l5.4512 0.46696s-0.66408 2.5503-0.66408 4.515 0.61013 4.4868 0.61013 4.4868l-5.3879 0.48576a25.519 25.519 0 0 0 8.1546 14.193l3.1609-4.5314s1.8749 1.8477 3.5763 2.8301c1.7014 0.98232 4.1911 1.7154 4.1911 1.7154l-2.2786 4.9186a25.519 25.519 0 0 0 8.1569 1.3939 25.519 25.519 0 0 0 8.218-1.3658l-2.3443-5.0054s2.5389-0.70023 4.2404-1.6825c1.7014-0.98232 3.5787-2.7714 3.5787-2.7714l3.1468 4.4704a25.519 25.519 0 0 0 8.1898-14.204l-5.5123-0.47163s0.66408-2.5503 0.66408-4.515-0.61013-4.4868-0.61013-4.4868l5.3903-0.48576a25.519 25.519 0 0 0-8.1569-14.193l-3.1609 4.5314s-1.8749-1.8477-3.5763-2.8301-4.1911-1.7154-4.1911-1.7154l2.2786-4.9186a25.519 25.519 0 0 0-8.1546-1.3939zm0.03179 1.7577a1.738 1.738 0 0 1 1.7365 1.7389 1.738 1.738 0 0 1-1.7365 1.7365 1.738 1.738 0 0 1-1.7389-1.7365 1.738 1.738 0 0 1 1.7389-1.7389zm-0.03179 7.4271a16.333 16.333 0 0 1 16.333 16.333 16.333 16.333 0 0 1-16.333 16.333 16.333 16.333 0 0 1-16.333-16.333 16.333 16.333 0 0 1 16.333-16.333zm-19.043 3.5856a1.738 1.738 0 0 1 0.87061 0.2325 1.738 1.738 0 0 1 0.63593 2.3725 1.738 1.738 0 0 1-2.3748 0.63829 1.738 1.738 0 0 1-0.63593-2.3748 1.738 1.738 0 0 1 1.5042-0.86825zm38.145 0a1.738 1.738 0 0 1 1.5065 0.86825 1.738 1.738 0 0 1-0.63829 2.3748 1.738 1.738 0 0 1-2.3725-0.63829 1.738 1.738 0 0 1 0.63597-2.3725 1.738 1.738 0 0 1 0.86825-0.2325zm-38.145 22.021a1.738 1.738 0 0 1 1.5065 0.86825 1.738 1.738 0 0 1-0.63593 2.3748 1.738 1.738 0 0 1-2.3748-0.63597 1.738 1.738 0 0 1 0.63593-2.3748 1.738 1.738 0 0 1 0.86829-0.2325zm38.145 0a1.738 1.738 0 0 1 0.86825 0.2325 1.738 1.738 0 0 1 0.63597 2.3748 1.738 1.738 0 0 1-2.3725 0.63597 1.738 1.738 0 0 1-0.63597-2.3725 1.738 1.738 0 0 1 1.5042-0.87061zm-19.071 11.013a1.738 1.738 0 0 1 1.7365 1.7365 1.738 1.738 0 0 1-1.7365 1.7389 1.738 1.738 0 0 1-1.7389-1.7389 1.738 1.738 0 0 1 1.7389-1.7365z"/>
</svg>
