<svg width="50.632mm" height="50mm" version="1.1" viewBox="0 0 50.632 50" xmlns="http://www.w3.org/2000/svg">
 <g transform="translate(-80.548 -114.93)">
  <path d="m109.82 114.93v4.9738h-7.9032v-4.9574a25.316 25.316 0 0 0-15.689 9.0835l4.2713 2.4658-3.9504 6.8425-4.2572-2.4565a25.316 25.316 0 0 0-1.7399 9.0484 25.316 25.316 0 0 0 1.7399 9.0506l4.2572-2.4588 3.9504 6.8448-4.2713 2.4658a25.316 25.316 0 0 0 15.689 9.0812v-4.9551h7.9032v4.9714a25.316 25.316 0 0 0 15.725-9.0764l-4.3087-2.4869 3.9528-6.8448 4.3041 2.4869a25.316 25.316 0 0 0 1.6907-9.0788 25.316 25.316 0 0 0-1.6907-9.0764l-4.3041 2.4846-3.9528-6.8425 4.3087-2.4869a25.316 25.316 0 0 0-15.725-9.0788zm-1.8172 6.6949a20.495 20.495 0 0 1 5.1611 1.405l-0.72594 1.7352a18.614 18.614 0 0 0-4.6881-1.2786zm-4.2666 0.0227 0.23881 1.8663a18.614 18.614 0 0 0-4.6998 1.2364l-0.71189-1.7376a20.495 20.495 0 0 1 5.1729-1.3652zm13.132 3.4985a20.495 20.495 0 0 1 3.7678 3.7982l-1.4963 1.1381a18.614 18.614 0 0 0-3.4212-3.4517zm-21.989 0.0181 1.1404 1.4963a18.614 18.614 0 0 0-3.4517 3.4212l-1.4846-1.1474a20.495 20.495 0 0 1 3.7959-3.7701zm27.906 7.463a20.495 20.495 0 0 1 1.3652 5.1751l-1.864 0.23654a18.614 18.614 0 0 0-1.2387-4.6998zm-33.814 9e-3 1.7328 0.7283a18.614 18.614 0 0 0-1.2786 4.6881l-1.8617-0.25285a20.495 20.495 0 0 1 1.4074-5.1635zm33.339 9.1771 1.8617 0.25286a20.495 20.495 0 0 1-1.4074 5.1611l-1.7328-0.72589a18.614 18.614 0 0 0 1.2786-4.6881zm-32.861 0.0136a18.614 18.614 0 0 0 1.2388 4.6998l-1.7375 0.71189a20.495 20.495 0 0 1-1.3652-5.1728zm3.1472 7.9571a18.614 18.614 0 0 0 3.4212 3.4493l-1.1498 1.487a20.495 20.495 0 0 1-3.7678-3.7982zm26.571 0 1.4846 1.1498a20.495 20.495 0 0 1-3.7959 3.7678l-1.1404-1.4964a18.614 18.614 0 0 0 3.4517-3.4212zm-19.869 5.3156a18.614 18.614 0 0 0 4.6881 1.2786l-0.25286 1.8593a20.495 20.495 0 0 1-5.1611-1.4027zm13.163 0.0136 0.71189 1.7399a20.495 20.495 0 0 1-5.1728 1.3652l-0.23881-1.8663a18.614 18.614 0 0 0 4.6998-1.2388z"/>
 </g>
</svg>
