<svg width="50mm" height="50.003mm" version="1.1" viewBox="0 0 50 50.003" xmlns="http://www.w3.org/2000/svg">
 <g transform="translate(-51.715 -72.616)">
  <path d="m77.778 72.616 4.0189 5.6457a20.048 20.048 0 0 1 4.9458 2.0498l6.8303-1.173a25.051 25.051 0 0 0-15.795-6.5226zm-2.2114 0.0031a25.051 25.051 0 0 0-15.783 6.5379l6.8495 1.1537a20.048 20.048 0 0 1 4.9496-2.0498zm19.556 8.0686-1.1576 6.8494a20.048 20.048 0 0 1 2.0498 4.942l5.6457 3.9881a25.051 25.051 0 0 0-6.538-15.78zm-36.889 0.02137a25.051 25.051 0 0 0-6.5188 15.795l5.6457-4.0151a20.048 20.048 0 0 1 2.0499-4.9535zm43.481 17.937-5.6342 4.0074a20.048 20.048 0 0 1-2.0999 5.0727l1.1692 6.7918a25.051 25.051 0 0 0 6.5649-15.872zm-49.996 0.06687a25.051 25.051 0 0 0 6.538 15.78l1.1537-6.8495a20.048 20.048 0 0 1-2.046-4.9419zm14.918 16.156-6.8303 1.173a25.051 25.051 0 0 0 15.791 6.5188l-4.0189-5.6457a20.048 20.048 0 0 1-4.9419-2.046zm20.183 0.0153a20.048 20.048 0 0 1-5.065 2.096l-3.9804 5.638a25.051 25.051 0 0 0 15.864-6.5841z" fill-rule="evenodd"/>
 </g>
</svg>
