<svg width="50.601mm" height="50mm" version="1.1" viewBox="0 0 50.601 50" xmlns="http://www.w3.org/2000/svg">
 <g transform="translate(-66.198 -84.689)">
  <path d="m95.373 84.69v0.82349a3.8732 3.8732 0 0 1-3.8732 3.8732 3.8732 3.8732 0 0 1-3.8732-3.8732v-0.80926a25.301 25.301 0 0 0-15.801 9.1561l0.67162 0.38669a3.8732 3.8732 0 0 1 1.4169 5.29 3.8732 3.8732 0 0 1-5.29 1.4192l-0.65977-0.3821a25.301 25.301 0 0 0-1.7657 9.1157 25.301 25.301 0 0 0 1.7657 9.1158l0.65977-0.3821a3.8732 3.8732 0 0 1 5.29 1.4192 3.8732 3.8732 0 0 1-1.4169 5.29l-0.67162 0.38899a25.301 25.301 0 0 0 15.799 9.1537v-0.8093a3.8732 3.8732 0 0 1 3.8732-3.8732 3.8732 3.8732 0 0 1 3.8731 3.8732v0.82354a25.301 25.301 0 0 0 15.839-9.1466l-0.70959-0.41057a3.8732 3.8732 0 0 1-1.4169-5.29 3.8732 3.8732 0 0 1 5.29-1.4192l0.7096 0.40828a25.301 25.301 0 0 0 1.7159-9.1419 25.301 25.301 0 0 0-1.7159-9.1418l-0.7096 0.40828a3.8732 3.8732 0 0 1-5.29-1.4192 3.8732 3.8732 0 0 1 1.4169-5.29l0.70959-0.41058a25.301 25.301 0 0 0-15.837-9.1466zm-11.935 2.473a2.0369 2.0369 0 0 1 2.0434 2.0291 2.0369 2.0369 0 0 1-2.0315 2.0434 2.0369 2.0369 0 0 1-2.0434-2.0291 2.0369 2.0369 0 0 1 2.0315-2.0434zm15.846 0.01378a2.0369 2.0369 0 0 1 2.0315 0.99438 2.0369 2.0369 0 0 1-0.73573 2.7839 2.0369 2.0369 0 0 1-2.7862-0.73573 2.0369 2.0369 0 0 1 0.73807-2.7862 2.0369 2.0369 0 0 1 0.75235-0.25627zm-21.514 3.2514a2.0369 2.0369 0 0 1 2.0434 2.0292 2.0369 2.0369 0 0 1-2.0291 2.0434 2.0369 2.0369 0 0 1-2.0434-2.0291 2.0369 2.0369 0 0 1 2.0291-2.0434zm27.174 0.02296a2.0369 2.0369 0 0 1 2.0339 0.99443 2.0369 2.0369 0 0 1-0.73808 2.7862 2.0369 2.0369 0 0 1-2.7839-0.73807 2.0369 2.0369 0 0 1 0.73573-2.7839 2.0369 2.0369 0 0 1 0.7523-0.25856zm-13.445 0.5174a18.723 18.723 0 0 1 18.723 18.723 18.723 18.723 0 0 1-18.723 18.723 18.723 18.723 0 0 1-18.723-18.723 18.723 18.723 0 0 1 18.723-18.723zm-21.516 13.433a2.0369 2.0369 0 0 1 0.7547 0.25397 2.0369 2.0369 0 0 1 0.7547 2.7791 2.0369 2.0369 0 0 1-2.7815 0.75469 2.0369 2.0369 0 0 1-0.75231-2.7815 2.0369 2.0369 0 0 1 2.0244-1.0062zm43.552 0a2.0369 2.0369 0 0 1 0.7547 0.25397 2.0369 2.0369 0 0 1 0.75236 2.7791 2.0369 2.0369 0 0 1-2.7791 0.75469 2.0369 2.0369 0 0 1-0.75469-2.7815 2.0369 2.0369 0 0 1 2.0267-1.0062zm-43.554 6.5384a2.0369 2.0369 0 0 1 0.75231 0.25397 2.0369 2.0369 0 0 1 0.75474 2.7815 2.0369 2.0369 0 0 1-2.7815 0.75235 2.0369 2.0369 0 0 1-0.75236-2.7791 2.0369 2.0369 0 0 1 2.0268-1.0087zm43.55 0a2.0369 2.0369 0 0 1 0.7547 0.25397 2.0369 2.0369 0 0 1 0.75235 2.7815 2.0369 2.0369 0 0 1-2.7791 0.75235 2.0369 2.0369 0 0 1-0.7547-2.7791 2.0369 2.0369 0 0 1 2.0268-1.0087zm-8.3183 13.941a2.0369 2.0369 0 0 1 2.0434 2.0292 2.0369 2.0369 0 0 1-2.0291 2.0434 2.0369 2.0369 0 0 1-2.0434-2.0291 2.0369 2.0369 0 0 1 2.0292-2.0434zm-27.706 0.0138a2.0369 2.0369 0 0 1 2.0339 0.99439 2.0369 2.0369 0 0 1-0.73573 2.7838 2.0369 2.0369 0 0 1-2.7862-0.73569 2.0369 2.0369 0 0 1 0.73807-2.7862 2.0369 2.0369 0 0 1 0.74997-0.25626zm22.041 3.2514a2.0369 2.0369 0 0 1 2.0434 2.0292 2.0369 2.0369 0 0 1-2.0315 2.0434 2.0369 2.0369 0 0 1-2.0434-2.0291 2.0369 2.0369 0 0 1 2.0315-2.0434zm-16.378 0.023a2.0369 2.0369 0 0 1 2.0315 0.99443 2.0369 2.0369 0 0 1-0.73573 2.7862 2.0369 2.0369 0 0 1-2.7838-0.73812 2.0369 2.0369 0 0 1 0.73568-2.7838 2.0369 2.0369 0 0 1 0.75236-0.25856z"/>
 </g>
</svg>
