<svg width="50mm" height="50.011mm" version="1.1" viewBox="0 0 50 50.011" xmlns="http://www.w3.org/2000/svg">
 <path d="m28.341 0c-2.5501 2.5764-2.7107 4.5391-2.7107 4.5391h-1.2677s-0.16198-1.9579-2.704-4.53a25.235 25.235 0 0 0-1.2295 0.23133c-1.5985 3.2072-1.1524 5.1039-1.1524 5.1039l-1.2115 0.39507s-0.75713-1.8073-3.9584-3.4662a25.235 25.235 0 0 0-1.1115 0.60797c-0.52325 3.532 0.48317 5.1947 0.48317 5.1947l-0.3402 0.24933-0.34239 0.24714-0.34239 0.24933s-1.2725-1.474-4.8022-2.0665a25.235 25.235 0 0 0-0.9051 0.9051c0.59256 3.5296 2.0666 4.8022 2.0666 4.8022l-0.24933 0.34239-0.24714 0.34239-0.24933 0.34239s-1.6631-1.0051-5.1969-0.48089a25.235 25.235 0 0 0-0.60792 1.1115c1.6586 3.1996 3.4662 3.9561 3.4662 3.9561l-0.13169 0.40385-0.12949 0.40165-0.13169 0.40385s-1.8967-0.44634-5.1039 1.1523a25.235 25.235 0 0 0-0.23134 1.2295c2.5722 2.5419 4.53 2.7039 4.53 2.7039v1.2677s-1.9578 0.16198-4.53 2.704a25.235 25.235 0 0 0 0.23134 1.2272c3.2062 1.5976 5.1039 1.1546 5.1039 1.1546l0.13169 0.40385 0.12949 0.39946 0.13169 0.40385s-1.8073 0.7573-3.4662 3.9584a25.235 25.235 0 0 0 0.60792 1.1115c3.5324 0.52338 5.1947-0.48093 5.1947-0.48093l0.24933 0.34239 0.24933 0.3402 0.24933 0.34503s-1.4741 1.2723-2.0666 4.8022a25.235 25.235 0 0 0 0.90286 0.90282c3.5298-0.59247 4.8045-2.0643 4.8045-2.0643l0.34239 0.24933 0.338 0.24714 0.34503 0.24933s-1.0066 1.6623-0.48317 5.1947a25.235 25.235 0 0 0 1.1115 0.60792c3.2009-1.6589 3.9584-3.4639 3.9584-3.4639l0.40385 0.12949 0.40385 0.13169 0.40165 0.1295s-0.44419 1.8987 1.1547 5.1062a25.235 25.235 0 0 0 1.2272 0.23133c2.542-2.5722 2.7039-4.53 2.7039-4.53h1.2677s0.16198 1.9622 2.713 4.5391a25.235 25.235 0 0 0 1.1977-0.19051c1.6294-3.2387 1.1751-5.1538 1.1751-5.1538l1.2115-0.39507s0.75932 1.819 3.9856 3.482a25.235 25.235 0 0 0 1.0752-0.54897c0.5502-3.5863-0.47408-5.2695-0.47408-5.2695l0.3402-0.24933 0.34239-0.24714 0.34239-0.24933s1.2838 1.4925 4.8612 2.0779a25.235 25.235 0 0 0 0.85747-0.85747c-0.58549-3.5773-2.0779-4.8612-2.0779-4.8612l0.24933-0.34239 0.24714-0.34239 0.24933-0.3402s1.6837 1.0207 5.2718 0.46956a25.235 25.235 0 0 0 0.54892-1.0752c-1.6628-3.2246-3.482-3.9833-3.482-3.9833l0.13169-0.40385 0.1295-0.40165 0.13169-0.40385s1.9151 0.4545 5.1538-1.1751a25.235 25.235 0 0 0 0.19051-1.1977c-2.5769-2.551-4.5391-2.713-4.5391-2.713v-1.2677s1.9621-0.16154 4.5391-2.713a25.235 25.235 0 0 0-0.19051-1.1954c-3.2376-1.6284-5.1538-1.1773-5.1538-1.1773l-0.13169-0.40385-0.1295-0.40165-0.13169-0.40385s1.819-0.7595 3.482-3.9856a25.235 25.235 0 0 0-0.54892-1.0752c-3.5865-0.55033-5.2696 0.47184-5.2696 0.47184l-0.24933-0.34239-0.24933-0.3402-0.24933-0.34459s1.4925-1.2835 2.0779-4.8612a25.235 25.235 0 0 0-0.85519-0.85747c-3.5794 0.58518-4.8635 2.0779-4.8635 2.0779l-0.34239-0.24933-0.3402-0.24714-0.34239-0.24714s1.0245-1.683 0.47408-5.2696a25.235 25.235 0 0 0-1.0752-0.54893c-3.226 1.663-3.9856 3.482-3.9856 3.482l-0.40385-0.13169-0.40385-0.13388-0.40165-0.12686s0.4524-1.9172-1.1773-5.1561a25.235 25.235 0 0 0-1.1977-0.19051zm-3.3482 5.8071a19.2 19.2 0 0 1 19.2 19.2 19.2 19.2 0 0 1-19.2 19.2 19.2 19.2 0 0 1-19.2-19.2 19.2 19.2 0 0 1 19.2-19.2zm0.0022 0.85519a20.434 20.434 0 0 0-2.6676 0.16329l0.23836 1.8624a18.559 18.559 0 0 1 4.8453 0.017559l0.25196-1.8578a20.434 20.434 0 0 0-2.6677-0.18612zm6.7803 1.268-0.72363 1.7286a18.559 18.559 0 0 1 4.1852 2.4385l1.1478-1.4813a20.434 20.434 0 0 0-4.6094-2.6858zm-13.549 0.021948a20.434 20.434 0 0 0-4.6298 2.6495l1.1342 1.4903a18.559 18.559 0 0 1 4.2056-2.4045zm21.18 5.6575-1.4904 1.1342a18.559 18.559 0 0 1 2.4045 4.2056l1.7354-0.71002a20.434 20.434 0 0 0-2.6495-4.6298zm-28.802 0.01317a20.434 20.434 0 0 0-2.6835 4.6117l1.7263 0.72363a18.559 18.559 0 0 1 2.4408-4.1875zm32.574 8.7198-1.8601 0.23572a18.559 18.559 0 0 1-0.01756 4.8453l1.8578 0.25197a20.434 20.434 0 0 0 0.02195-5.333zm-36.338 0.0023a20.434 20.434 0 0 0-0.021948 5.3353l1.8578-0.23836a18.559 18.559 0 0 1 0.021948-4.8431zm33.507 8.7198a18.559 18.559 0 0 1-2.4408 4.1852l1.4835 1.1478a20.434 20.434 0 0 0 2.6835-4.6094zm-30.673 0.0088-1.7354 0.71003a20.434 20.434 0 0 0 2.6495 4.6298l1.4904-1.1342a18.559 18.559 0 0 1-2.4045-4.2057zm5.0835 6.8483-1.1478 1.4836a20.434 20.434 0 0 0 4.6094 2.6858l0.72363-1.7285a18.559 18.559 0 0 1-4.1852-2.4408zm20.506 0.0088a18.559 18.559 0 0 1-4.2057 2.4045l0.71003 1.7353a20.434 20.434 0 0 0 4.6298-2.6495zm-12.68 3.3799-0.25196 1.8578a20.434 20.434 0 0 0 5.3353 0.02195l-0.23836-1.8579a18.559 18.559 0 0 1-4.8453-0.02195z"/>
</svg>
