<svg width="50mm" height="50.017mm" version="1.1" viewBox="0 0 50 50.017" xmlns="http://www.w3.org/2000/svg">
 <g transform="translate(-87.242 -106.94)">
  <path d="m116.11 106.94v0.82382a3.8745 3.8745 0 0 1-3.8745 3.8745 3.8745 3.8745 0 0 1-3.8745-3.8745v-0.80958a25.309 25.309 0 0 0-5.2467 1.4506l0.38223 0.66238a3.8745 3.8745 0 0 1-1.4173 5.2918 3.8745 3.8745 0 0 1-5.2942-1.4173l-0.38912-0.67184a25.309 25.309 0 0 0-3.8413 3.8436l0.67189 0.38683a3.8745 3.8745 0 0 1 1.4173 5.2918 3.8745 3.8745 0 0 1-5.2918 1.4197l-0.65999-0.38223a25.309 25.309 0 0 0-1.4506 5.2444h0.80718a3.8745 3.8745 0 0 1 3.8745 3.8745 3.8745 3.8745 0 0 1-3.8745 3.8744h-0.80718a25.309 25.309 0 0 0 1.4506 5.2444l0.65999-0.38223a3.8745 3.8745 0 0 1 5.2918 1.4197 3.8745 3.8745 0 0 1-1.4173 5.2918l-0.67189 0.38958a25.309 25.309 0 0 0 3.8436 3.8436l0.38912-0.67423a3.8745 3.8745 0 0 1 5.2918-1.4173 3.8745 3.8745 0 0 1 1.4173 5.2942l-0.38223 0.65999a25.309 25.309 0 0 0 5.2467 1.4505v-0.80957a3.8745 3.8745 0 0 1 3.8745-3.8745 3.8745 3.8745 0 0 1 3.8745 3.8745v0.82381a25.309 25.309 0 0 0 5.2704-1.4173l-0.40841-0.70983a3.8745 3.8745 0 0 1 1.4173-5.2918 3.8745 3.8745 0 0 1 5.2942 1.4197l0.41071 0.70984a25.309 25.309 0 0 0 3.8579-3.8602l-0.70979-0.41071a3.8745 3.8745 0 0 1-1.4174-5.2918 3.8745 3.8745 0 0 1 5.2918-1.4197l0.70983 0.40841a25.309 25.309 0 0 0 1.4149-5.2704h-0.82143a3.8745 3.8745 0 0 1-3.8745-3.8744 3.8745 3.8745 0 0 1 3.8745-3.8745h0.82143a25.309 25.309 0 0 0-1.4149-5.2704l-0.70983 0.40841a3.8745 3.8745 0 0 1-5.2918-1.4197 3.8745 3.8745 0 0 1 1.4174-5.2918l0.70979-0.41071a25.309 25.309 0 0 0-3.8602-3.8602l-0.41071 0.71223a3.8745 3.8745 0 0 1-5.2918 1.4173 3.8745 3.8745 0 0 1-1.4173-5.2918l0.41071-0.70983a25.309 25.309 0 0 0-5.2728-1.4173zm-3.8745 6.2794a18.729 18.729 0 0 1 18.729 18.729 18.729 18.729 0 0 1-18.729 18.729 18.729 18.729 0 0 1-18.731-18.729 18.729 18.729 0 0 1 18.731-18.729z"/>
 </g>
</svg>
