<svg width="49.754mm" height="49.285mm" version="1.1" viewBox="0 0 49.754 49.285" xmlns="http://www.w3.org/2000/svg">
 <g transform="translate(-76.876 -95.318)">
  <path d="m105.64 95.318v4.9026h-7.7662v-4.8865a24.877 24.954 0 0 0-15.417 8.9536l4.1972 2.4306-3.8819 6.7446-4.1834-2.4213a24.877 24.954 0 0 0-1.7097 8.9189 24.877 24.954 0 0 0 1.7097 8.9213l4.1834-2.4237 3.8819 6.7469-4.1972 2.4305a24.877 24.954 0 0 0 15.417 8.9512v-4.8842h7.7662v4.9003a24.877 24.954 0 0 0 15.452-8.9466l-4.234-2.4513 3.8843-6.7469 4.2294 2.4514a24.877 24.954 0 0 0 1.6614-8.949 24.877 24.954 0 0 0-1.6614-8.9467l-4.2294 2.4491-3.8843-6.7446 4.234-2.4514a24.877 24.954 0 0 0-15.452-8.9489z"/>
 </g>
</svg>
