<svg width="49.755mm" height="49.285mm" version="1.1" viewBox="0 0 49.755 49.285" xmlns="http://www.w3.org/2000/svg">
 <g transform="translate(-84.005 -101.67)">
  <path d="m112.77 101.67v4.9025h-7.7664v-4.8865a24.877 24.954 0 0 0-15.417 8.9535l4.1972 2.4309-3.8819 6.7443-4.1832-2.421a24.877 24.954 0 0 0-1.71 8.9188 24.877 24.954 0 0 0 1.71 8.9214l4.1832-2.4236 3.8819 6.7469-4.1972 2.4304a24.877 24.954 0 0 0 15.417 8.9514v-4.8845h7.7664v4.9005a24.877 24.954 0 0 0 15.452-8.9467l-4.2338-2.451 3.884-6.7469 4.2297 2.451a24.877 24.954 0 0 0 1.6614-8.9488 24.877 24.954 0 0 0-1.6614-8.9467l-4.2297 2.449-3.884-6.7443 4.2338-2.4515a24.877 24.954 0 0 0-15.452-8.9488zm-3.884 6.842a17.746 17.801 0 0 1 17.746 17.8 17.746 17.801 0 0 1-17.746 17.8 17.746 17.801 0 0 1-17.746-17.8 17.746 17.801 0 0 1 17.746-17.8z"/>
 </g>
</svg>
