<svg width="50.628mm" height="50mm" version="1.1" viewBox="0 0 50.628 50" xmlns="http://www.w3.org/2000/svg">
 <path d="m29.267 0v4.9745h-7.9027v-4.9577a25.315 25.316 0 0 0-15.689 9.0837l4.2706 2.4662-3.9497 6.841-4.2571-2.4562a25.315 25.316 0 0 0-1.7388 9.0484 25.315 25.316 0 0 0 1.7388 9.0501l4.2571-2.4578 3.9497 6.8443-4.2706 2.4662a25.315 25.316 0 0 0 15.689 9.0804v-4.9543h7.9027v4.9711a25.315 25.316 0 0 0 15.723-9.077l-4.3092-2.4864 3.953-6.8443 4.3041 2.4864a25.315 25.316 0 0 0 1.6901-9.0787 25.315 25.316 0 0 0-1.6901-9.077l-4.3041 2.4847-3.953-6.841 4.3092-2.488a25.315 25.316 0 0 0-15.723-9.0787zm-15.375 3.9262a1.2902 1.2902 0 0 1 1.1172 0.64513 1.2902 1.2902 0 0 1-0.47208 1.7623 1.2902 1.2902 0 0 1-1.7623-0.47208 1.2902 1.2902 0 0 1 0.47208-1.7623 1.2902 1.2902 0 0 1 0.64513-0.17295zm22.845 0a1.2902 1.2902 0 0 1 0.64516 0.17295 1.2902 1.2902 0 0 1 0.47204 1.7623 1.2902 1.2902 0 0 1-1.7623 0.47208 1.2902 1.2902 0 0 1-0.47208-1.7623 1.2902 1.2902 0 0 1 1.1172-0.64513zm-13.452 2.4209 0.23537 1.1071-3.6994 0.78791-0.237-1.1088zm4.0572 0 3.7011 0.78622-0.23537 1.1088-3.701-0.78791zm-2.0277 2.3688a16.285 16.285 0 0 1 16.284 16.284 16.285 16.285 0 0 1-16.284 16.286 16.285 16.285 0 0 1-16.286-16.286 16.285 16.285 0 0 1 16.286-16.284zm-9.4382 0.06892 0.66694 0.91561-3.0609 2.2243-0.66697-0.9173zm18.875 0 3.0609 2.2226-0.66697 0.9173-3.0609-2.2243zm-24.651 5.2399 0.98112 0.56616-1.8917 3.276-0.98115-0.56616zm30.426 0 1.8917 3.276-0.98115 0.56616-1.8917-3.276zm3.1466 7.1349 0.39649 3.7632-1.1273 0.11931-0.3948-3.7632zm-36.718 0.0017 1.1256 0.11769-0.3948 3.7632-1.1273-0.11769zm-4.4839 2.5485a1.2902 1.2902 0 0 1 1.2902 1.2902 1.2902 1.2902 0 0 1-1.2902 1.2903 1.2902 1.2902 0 0 1-1.2903-1.2903 1.2902 1.2902 0 0 1 1.2903-1.2902zm45.686 0a1.2902 1.2902 0 0 1 1.2903 1.2902 1.2902 1.2902 0 0 1-1.2903 1.2903 1.2902 1.2902 0 0 1-1.2902-1.2903 1.2902 1.2902 0 0 1 1.2902-1.2902zm-40.096 4.9005 1.1693 3.5986-1.0769 0.34942-1.1693-3.5985zm34.514 0 1.0769 0.34945-1.1693 3.5985-1.0769-0.34942zm-31.552 6.7048 2.5317 2.8123-0.84168 0.75768-2.5317-2.8123zm28.588 0 0.84168 0.75771-2.5317 2.8123-0.84168-0.75937zm-23.154 4.9207 3.4557 1.5389-0.46031 1.0349-3.4574-1.5389zm17.721 0 0.46031 1.0349-3.4557 1.5389-0.462-1.0349zm-10.757 2.2848h3.785v1.1323h-3.785zm-9.5289 0.9727a1.2902 1.2902 0 0 1 0.64513 0.17295 1.2902 1.2902 0 0 1 0.47208 1.7623 1.2902 1.2902 0 0 1-1.7623 0.47208 1.2902 1.2902 0 0 1-0.47208-1.7623 1.2902 1.2902 0 0 1 1.1172-0.64513zm22.845 0a1.2902 1.2902 0 0 1 1.1172 0.64513 1.2902 1.2902 0 0 1-0.47208 1.7623 1.2902 1.2902 0 0 1-1.7623-0.47208 1.2902 1.2902 0 0 1 0.47208-1.7623 1.2902 1.2902 0 0 1 0.64513-0.17295z"/>
</svg>
