<svg width="50mm" height="50.005mm" version="1.1" viewBox="0 0 50 50.005" xmlns="http://www.w3.org/2000/svg">
 <g transform="translate(-41.407 -59.926)">
  <path d="m79.143 63.39-0.27349 2.8515a22.503 22.503 0 0 1 6.2563 6.2943l2.8322-0.30531a25.018 25.018 0 0 0-8.8149-8.8403zm-6.4758-2.697a25.018 25.018 0 0 0-12.436 0.03718l1.7822 2.1616a22.503 22.503 0 0 1 8.8737 0.02206l1.7877-2.2183a25.018 25.018 0 0 0-0.0063-0.0031zm17.959 18.017-2.2106 1.8212a22.503 22.503 0 0 1-0.02206 8.8736l2.2157 1.7866a25.018 25.018 0 0 0 0.01575-12.481zm-36.909-15.294a25.018 25.018 0 0 0-8.842 8.7486l2.848 0.27507a22.503 22.503 0 0 1 6.2953-6.2587zm34.2 34.245-2.8515-0.27349a22.503 22.503 0 0 1-6.2942 6.2564l0.30594 2.8321a25.018 25.018 0 0 0 8.84-8.8149zm-45.739-19.026a25.018 25.018 0 0 0 0.03182 12.44l2.1631-1.7785a22.503 22.503 0 0 1 0.02206-8.8736zm28.597 28.301a22.503 22.503 0 0 1-8.8726-0.0252l-1.7851 2.2195a25.018 25.018 0 0 0 12.481 0.0221zm-23.11-9.6431-2.7663 0.29744a25.018 25.018 0 0 0 8.7475 8.8445l0.27349-2.8516a22.503 22.503 0 0 1-6.2548-6.2903zm15.641-31.902a19.802 19.802 0 0 0-8.4038 3.4801l1.4409 0.94688a18.177 18.177 0 0 1 6.5704-2.6814c0.14809-0.66337 0.20764-0.89612 0.3925-1.7456zm6.3206 0.02521 0.35689 1.7346a18.177 18.177 0 0 1 6.5539 2.7116c0.56056-0.35585 0.75585-0.47161 1.4656-0.92769a19.802 19.802 0 0 0-8.3762-3.5184zm-19.212 7.9207a19.802 19.802 0 0 0-3.5184 8.3735l1.7346-0.35689a18.177 18.177 0 0 1 2.7116-6.5511c-0.35532-0.55984-0.47215-0.75579-0.92769-1.4656zm32.053 0.08759-0.94688 1.4381a18.177 18.177 0 0 1 2.6814 6.5743c0.66211 0.14809 0.89534 0.20512 1.7428 0.38982a19.802 19.802 0 0 0-3.4773-8.401zm-35.596 14.606a19.802 19.802 0 0 0 3.4746 8.401l0.94685-1.4409a18.177 18.177 0 0 1-2.6786-6.5676c-0.66154-0.14809-0.89502-0.20764-1.7428-0.3925zm39.049 0.11532-1.7345 0.35689a18.177 18.177 0 0 1-2.7143 6.5567c0.35532 0.55952 0.47268 0.75402 0.92769 1.4629a19.802 19.802 0 0 0 3.5212-8.3763zm-29.644 11.845c-0.56078 0.35582-0.75528 0.47426-1.4656 0.93038a19.802 19.802 0 0 0 8.379 3.5184l-0.35954-1.7345a18.177 18.177 0 0 1-6.5539-2.7143zm20.194 0.05325a18.177 18.177 0 0 1-6.5676 2.6787c-0.14809 0.66151-0.20764 0.89489-0.39247 1.7427a19.802 19.802 0 0 0 8.3982-3.4745z" fill-rule="evenodd"/>
 </g>
</svg>
