<svg width="48.715mm" height="50mm" version="1.1" viewBox="0 0 48.715 50" xmlns="http://www.w3.org/2000/svg">
 <g transform="translate(-92.073 -115.77)">
  <path d="m116.4 115.77a25.012 24.999 0 0 0-7.3989 1.1465l1.6302 2.8222a22.761 22.75 0 0 0-5.1514 2.1304 22.761 22.75 0 0 0-4.4175 3.3904l-1.6198-2.8043a25.012 24.999 0 0 0-7.3703 12.794h3.2187a22.761 22.75 0 0 0-0.72835 5.5231 22.761 22.75 0 0 0 0.72835 5.5205h-3.2187a25.012 24.999 0 0 0 7.3703 12.792l1.6198-2.804a22.761 22.75 0 0 0 4.4201 3.3927 22.761 22.75 0 0 0 5.1488 2.1304l-1.6302 2.8222a25.012 24.999 0 0 0 7.3989 1.1439 25.012 24.999 0 0 0 7.4013-1.1439l-1.6299-2.8222a22.761 22.75 0 0 0 5.1485-2.1304 22.761 22.75 0 0 0 4.4201-3.3927l1.62 2.804a25.012 24.999 0 0 0 7.3703-12.792h-3.2216a22.761 22.75 0 0 0 0.72861-5.5231 22.761 22.75 0 0 0-0.72861-5.5205h3.2784a25.012 24.999 0 0 0-7.4091-12.828l-1.638 2.8379a22.761 22.75 0 0 0-4.4228-3.393 22.761 22.75 0 0 0-5.1459-2.1278l1.6404-2.8428a25.012 24.999 0 0 0-7.4117-1.1259zm0.0288 5.0115a22.279 22.268 0 0 1 2.9074 0.20163l-0.27561 2.0243a20.234 20.224 0 0 0-5.2824-0.0221l-0.25841-2.0246a22.279 22.268 0 0 1 2.909-0.17923zm7.3903 1.3788a22.279 22.268 0 0 1 5.026 2.9262l-1.2514 1.6154a20.234 20.224 0 0 0-4.5634-2.6589zm-14.771 0.0213 0.77394 1.8907a20.234 20.224 0 0 0-4.5855 2.6206l-1.2366-1.6239a22.279 22.268 0 0 1 5.0482-2.8874zm7.3815 2.4742a16.122 16.114 0 0 1 16.122 16.114 16.122 16.114 0 0 1-16.122 16.114 16.122 16.114 0 0 1-16.122-16.114 16.122 16.114 0 0 1 16.122-16.114zm15.709 3.6905a22.279 22.268 0 0 1 2.8887 5.0458l-1.8917 0.77369a20.234 20.224 0 0 0-2.6219-4.5835zm-31.4 0.0146 1.6161 1.2507a20.234 20.224 0 0 0-2.6602 4.5611l-1.8834-0.78827a22.279 22.268 0 0 1 2.9275-5.0234zm35.51 9.5006a22.279 22.268 0 0 1-0.0221 5.8135l-2.0256-0.27561a20.234 20.224 0 0 0 0.0224-5.2795zm-39.616 4e-3 2.0254 0.2751a20.234 20.224 0 0 0-0.02217 5.2798l-2.0256 0.25868a22.279 22.268 0 0 1 0.0224-5.8135zm36.532 9.5019 1.8834 0.78828a22.279 22.268 0 0 1-2.9275 5.0234l-1.6164-1.2504a20.234 20.224 0 0 0 2.6605-4.5613zm-33.441 7e-3a20.234 20.224 0 0 0 2.6219 4.5835l-1.6247 1.2361a22.279 22.268 0 0 1-2.8889-5.0453zm5.5418 7.464a20.234 20.224 0 0 0 4.5637 2.6592l-0.78879 1.8824a22.279 22.268 0 0 1-5.026-2.9257zm22.357 9e-3 1.2366 1.6239a22.279 22.268 0 0 1-5.0482 2.8876l-0.77419-1.891a20.234 20.224 0 0 0 4.5858-2.6206zm-13.824 3.6858a20.234 20.224 0 0 0 5.2821 0.0221l0.25843 2.0243a22.279 22.268 0 0 1-5.8162-0.0221z"/>
 </g>
</svg>
