<svg width="50.021mm" height="49.999mm" version="1.1" viewBox="0 0 50.021 49.999" xmlns="http://www.w3.org/2000/svg">
 <g transform="translate(-77.926 -111.01)">
  <path d="m105.22 111.01c-0.13561 0.13202-0.21599 0.28335-0.21599 0.28335l-0.59638 1.4062c-0.15223 0.71223-0.73949 1.2492-1.4619 1.3412-0.77828 0.0948-1.5216-0.3507-1.8053-1.0814l-0.0269-0.0651c-0.0225-0.0606-0.0404-0.12079-0.0534-0.18321l-0.34577-1.2183s-0.11271-0.31389-0.35025-0.46643a25.151 25.151 0 0 0-2.9842 0.50123c-0.08532 0.1648-0.11136 0.3296-0.11136 0.3296l-0.13471 1.5223c0.07544 0.72435-0.31613 1.4162-0.97461 1.7264-0.71088 0.33095-1.5557 0.13831-2.0513-0.46876l-0.0449-0.0534c-0.04041-0.0507-0.07858-0.10463-0.10912-0.16031l-0.70312-1.0512s-0.20476-0.26449-0.47805-0.33634c-0.01347-4e-3 -0.03592-9e-3 -0.05344-0.0135a25.151 25.151 0 0 0-2.6268 1.3923c-0.03592 0.19399-9e-3 0.3736-9e-3 0.3736l0.34352 1.4875c0.29547 0.66567 0.13831 1.4456-0.39202 1.9446-0.57389 0.53392-1.4387 0.61232-2.0978 0.18815l-0.05793-0.0404c-0.05344-0.0359-0.10373-0.0732-0.15088-0.1181l-0.9954-0.78439s-0.27706-0.1895-0.55924-0.17154c-9e-3 5.9e-4 -0.02694 2e-3 -0.03592 2e-3a25.151 25.151 0 0 0-2.0884 2.0861c0.01347 0.21644 0.10912 0.40594 0.10912 0.40594l0.78664 1.3088c0.4865 0.54177 0.5777 1.3316 0.22722 1.9701-0.38079 0.68547-1.1773 1.0264-1.9353 0.82611l-0.0696-0.018c-0.06197-0.018-0.12259-0.0359-0.18097-0.0651l-1.1881-0.43603s-0.31748-0.0916-0.58017 9e-3a25.151 25.151 0 0 0-1.3714 2.6732c0.08307 0.18725 0.22048 0.32242 0.22048 0.32242l1.1533 1.0048c0.63028 0.36508 0.95952 1.0875 0.82378 1.8031-0.15043 0.76948-0.80227 1.3381-1.5849 1.383l-0.0696 4e-3c-0.06421 0-0.12932-3.2e-4 -0.19264-9e-3l-1.2647-0.0489s-0.31927 0.0135-0.53836 0.18096a25.151 25.151 0 0 0-0.46409 2.9958c0.13202 0.13561 0.2829 0.21599 0.2829 0.21599l1.4062 0.59638c0.71219 0.15223 1.2516 0.73945 1.3436 1.4619 0.09475 0.77828-0.3507 1.5215-1.0814 1.8053l-0.06511 0.0269c-0.06107 0.0225-0.12304 0.0404-0.18546 0.0534l-1.2183 0.34577s-0.31344 0.11226-0.46642 0.35025a25.151 25.151 0 0 0 0.50123 2.9842c0.1648 0.0853 0.3296 0.11361 0.3296 0.11361l1.5223 0.13247c0.7244-0.0754 1.4179 0.31613 1.7288 0.97461 0.33095 0.71089 0.13606 1.5557-0.47105 2.0513l-0.05344 0.0449c-0.05119 0.0404-0.10463 0.0777-0.16031 0.10912l-1.0512 0.70311s-0.26449 0.20432-0.33634 0.47801c-0.0037 0.0135-9e-3 0.0359-0.01347 0.0534a25.151 25.151 0 0 0 1.3923 2.6292c0.19309 0.0359 0.37136 9e-3 0.37136 9e-3l1.4898-0.34352c0.66562-0.29503 1.4455-0.13831 1.9446 0.39202 0.53423 0.57383 0.60998 1.4386 0.18546 2.0978l-0.04041 0.0579c-0.03592 0.0534-0.07454 0.10373-0.11855 0.15088l-0.78201 0.99553s-0.18905 0.27706-0.17154 0.55924c6.28e-4 9e-3 0.0016 0.0269 0.0023 0.0359a25.151 25.151 0 0 0 2.0861 2.0885c0.21734-0.0135 0.40594-0.10912 0.40594-0.10912l1.3111-0.78664c0.54178-0.48632 1.3316-0.57765 1.9702-0.22722 0.68538 0.38079 1.0239 1.1773 0.82378 1.9353l-0.01796 0.0696c-0.01796 0.0624-0.04041 0.12259-0.06736 0.18097l-0.43602 1.1881s-0.09116 0.31343 9e-3 0.57549a25.151 25.151 0 0 0 2.6802 1.3761c0.18636-0.0831 0.31792-0.22048 0.31792-0.22048l1.0048-1.1533c0.36508-0.63023 1.0875-0.95938 1.8031-0.82377 0.76948 0.15043 1.339 0.80222 1.383 1.5849l0.0045 0.0696c0 0.0642-7.64e-4 0.12932-9e-3 0.19264l-0.04625 1.2647s9e-3 0.31928 0.17872 0.53837a25.151 25.151 0 0 0 2.9981 0.46409c0.13561-0.13202 0.2133-0.2829 0.2133-0.2829l0.59866-1.4062c0.15223-0.71218 0.73716-1.2515 1.4596-1.3436 0.77824-0.0948 1.5216 0.35071 1.8053 1.0814l0.0269 0.0651c0.0225 0.0611 0.0359 0.12304 0.0512 0.18546l0.34576 1.2183s0.11272 0.31388 0.35026 0.46642c0.018 0.0135 0.0453 0.0269 0.0674 0.0404a25.151 25.151 0 0 0 2.8774-0.47568c0.11765-0.185 0.15313-0.39695 0.15313-0.39695l0.13471-1.5223c-0.0754-0.7244 0.31388-1.4157 0.97227-1.7264 0.71089-0.33095 1.5556-0.1383 2.0513 0.46876l0.0463 0.0534c0.0404 0.0507 0.0763 0.10463 0.10687 0.16031l0.70545 1.0512s0.20252 0.26449 0.47572 0.33634c0.018 4e-3 0.0472 9e-3 0.0696 0.018a25.151 25.151 0 0 0 2.592-1.332c0.0597-0.21689 0.0269-0.43603 0.0269-0.43603l-0.34352-1.4898c-0.29547-0.66567-0.13606-1.4432 0.39472-1.9423 0.57392-0.53391 1.4364-0.61227 2.0954-0.18815l0.0602 0.0404c0.0534 0.0359 0.10373 0.0759 0.15088 0.12079l0.99549 0.78201s0.27481 0.1895 0.5569 0.17154c0.0225-1e-3 0.053-4e-3 0.079-9e-3a25.151 25.151 0 0 0 2.0467-2.0699c-0.0135-0.22183-0.10911-0.41761-0.10911-0.41761l-0.78664-1.3088c-0.4865-0.54182-0.57775-1.3339-0.22722-1.9724 0.38079-0.68542 1.1796-1.0241 1.9376-0.82382l0.0674 0.018c0.062 0.018 0.12259 0.0404 0.18097 0.0673l1.1881 0.43603s0.31883 0.093 0.58246-9e-3c0.018-9e-3 0.0467-0.018 0.0696-0.0269a25.151 25.151 0 0 0 1.3111-2.6059c-0.0795-0.20746-0.23215-0.36418-0.23215-0.36418l-1.151-1.0024c-0.63028-0.36507-0.96186-1.0875-0.82611-1.803 0.15043-0.76953 0.80227-1.3382 1.5849-1.3831l0.0719-4e-3c0.0642 0 0.12663 3.1e-4 0.19039 9e-3l1.2647 0.0463s0.33319-9e-3 0.55228-0.18815c0.018-0.0135 0.0404-0.0314 0.0579-0.0489a25.151 25.151 0 0 0 0.4432-2.8774c-0.1401-0.17378-0.33409-0.27616-0.33409-0.27616l-1.4062-0.59872c-0.71219-0.15222-1.2493-0.73711-1.3413-1.4596-0.0947-0.77828 0.35071-1.5216 1.0814-1.8053l0.0651-0.0269c0.0611-0.0224 0.1208-0.0359 0.18322-0.0512l1.2183-0.34576s0.31344-0.11226 0.46643-0.35026a25.151 25.151 0 0 0-0.49894-2.9842c-0.1657-0.0862-0.33184-0.11361-0.33184-0.11361l-1.5223-0.13247c-0.7244 0.0754-1.416-0.31613-1.7264-0.97461-0.33095-0.71088-0.13875-1.5557 0.46876-2.0513l0.0557-0.0463c0.0512-0.0404 0.10239-0.0754 0.15762-0.10688l1.0512-0.70545s0.26449-0.20207 0.33634-0.47572c4e-3 -0.0135 9e-3 -0.0404 0.0135-0.0557a25.151 25.151 0 0 0-1.39-2.6245c-0.19399-0.0359-0.37361-9e-3 -0.37361-9e-3l-1.4898 0.34352c-0.66571 0.29503-1.4455 0.13607-1.9446-0.39471-0.53423-0.57388-0.60994-1.4363-0.18545-2.0954l0.0404-0.0602c0.0359-0.0534 0.0741-0.10373 0.11855-0.15088l0.78201-0.99549s0.18905-0.27482 0.17154-0.55696c-6.8e-4 -9e-3 -2e-3 -0.0269-2e-3 -0.0404a25.151 25.151 0 0 0-2.0885-2.0861c-0.21554 0.0135-0.40369 0.10911-0.40369 0.10911l-1.3087 0.78664c-0.54182 0.48632-1.3316 0.57766-1.9702 0.22722-0.68542-0.38079-1.0262-1.1796-0.82607-1.9376l0.018-0.0674c0.018-0.0624 0.0404-0.12259 0.0673-0.18097l0.43603-1.1881s0.0907-0.31568-9e-3 -0.57784a25.151 25.151 0 0 0-2.6733-1.3737c-0.18725 0.0831-0.32241 0.22048-0.32241 0.22048l-1.0047 1.151c-0.36508 0.63024-1.0876 0.96168-1.8031 0.82606-0.76953-0.15043-1.3386-0.80217-1.383-1.5849l-4e-3 -0.0718c0-0.0642 3.2e-4 -0.12708 9e-3 -0.1904l0.0485-1.2647s-0.0135-0.31927-0.18096-0.53836a25.151 25.151 0 0 0-2.9958-0.46409zm-2.302 5.5901a19.396 19.396 0 0 1 19.397 19.395 19.396 19.396 0 0 1-19.397 19.397 19.396 19.396 0 0 1-19.397-19.397 19.396 19.396 0 0 1 19.397-19.395z"/>
 </g>
</svg>
