<svg width="50mm" height="51.337mm" version="1.1" viewBox="0 0 50 51.337" xmlns="http://www.w3.org/2000/svg">
 <g transform="translate(-86.675 -112.11)">
  <path d="m111.64 112.11c-2.5763 8e-3 -5.1366 0.40643-7.5948 1.1778l1.6743 2.897c-1.8456 0.51-3.6215 1.245-5.2877 2.1883-1.6483 0.97038-3.1711 2.1414-4.5343 3.483l-1.6627-2.8814c-3.7862 3.5175-6.4224 8.0956-7.5637 13.136h3.3019c-0.48062 1.8527-0.73172 3.7594-0.74758 5.6733 0.01507 1.9126 0.26711 3.816 0.74758 5.6674h-3.3019c1.1417 5.0393 3.7778 9.6148 7.5637 13.132l1.6627-2.8775c1.3636 1.3431 2.8871 2.5116 4.5363 3.483 1.6657 0.94254 3.4409 1.6768 5.2858 2.1863l-1.6743 2.8989c2.4583 0.77015 5.0186 1.1659 7.5948 1.174 2.5768-8e-3 5.1378-0.40364 7.5968-1.174l-1.6743-2.8989c1.8448-0.50954 3.6201-1.2438 5.2858-2.1863 1.6491-0.97144 3.1726-2.14 4.5362-3.483l1.6626 2.8775c3.7866-3.5167 6.4234-8.0922 7.5656-13.132h-3.3078c0.48046-1.852 0.73156-3.758 0.74761-5.6713-0.0151-1.9133-0.26711-3.8173-0.74761-5.6694h3.3662c-1.146-5.0575-3.7973-9.6493-7.6046-13.171l-1.6821 2.9165c-1.3648-1.3433-2.8896-2.5157-4.5402-3.4869-1.6646-0.94157-3.4385-1.6752-5.2819-2.1844l1.684-2.9184c-2.463-0.76536-5.0273-1.1552-7.6065-1.1564zm-0.0113 4.801a20.868 20.868 0 0 1 2.568 0.16539l0.0761 3.4674c1.0172 0.16916 2.7879 0.63478 3.9405 1.0572l1.6685-2.9807a20.868 20.868 0 0 1 4.3221 2.5076l-1.6627 3.0255c0.79637 0.65516 2.0982 1.9451 2.8853 2.8872l2.9223-1.7405a20.868 20.868 0 0 1 2.4862 4.3338l-2.9378 1.7814c0.36205 0.96553 0.84463 2.7331 1.0552 3.9425l3.3934-0.0448a20.868 20.868 0 0 1 0.15183 2.4667 20.868 20.868 0 0 1-0.15975 2.5271l-3.4323 0.0738c-0.16916 1.0172-0.63678 2.7898-1.0591 3.9425l2.9632 1.6587a20.868 20.868 0 0 1-2.4959 4.326l-3.0196-1.6568c-0.65512 0.79636-1.9451 2.0963-2.8872 2.8834l1.7464 2.934a20.868 20.868 0 0 1-4.326 2.494l-1.7931-2.9554c-0.96556 0.36206-2.7331 0.84267-3.9425 1.0533l0.0448 3.4304a20.868 20.868 0 0 1-2.5076 0.15785 20.868 20.868 0 0 1-2.4862-0.19666l-0.0761-3.4381c-1.0172-0.16916-2.7879-0.63478-3.9405-1.0572l-1.6588 2.9612a20.868 20.868 0 0 1-4.3474-2.4589l1.6782-3.0547c-0.79637-0.65512-2.0983-1.9451-2.8853-2.8872l-2.9671 1.7658a20.868 20.868 0 0 1-2.457-4.3493l2.9534-1.7911c-0.36205-0.96553-0.84463-2.7331-1.0552-3.9425l-3.4324 0.0448a20.868 20.868 0 0 1-0.19478-2.4648 20.868 20.868 0 0 1 0.19854-2.529l3.4752-0.0738c0.16916-1.0172 0.63674-2.7898 1.0591-3.9425l-2.9807-1.6685a20.868 20.868 0 0 1 2.4745-4.3357l3.0586 1.6763c0.65512-0.79637 1.9451-2.0963 2.8872-2.8833l-1.7639-2.9612a20.868 20.868 0 0 1 4.3571-2.4434l1.7794 2.932c0.96557-0.36205 2.7331-0.84267 3.9425-1.0533l-0.0448-3.3956a20.868 20.868 0 0 1 2.4258-0.19064z"/>
 </g>
</svg>
