<svg width="50mm" height="50.012mm" version="1.1" viewBox="0 0 50 50.012" xmlns="http://www.w3.org/2000/svg">
 <g transform="translate(-70.124 -102.4)">
  <path d="m98.467 102.4c-2.55 2.5764-2.7107 4.539-2.7107 4.539h-1.2699s-0.16198-1.9578-2.7039-4.5299a25.235 25.235 0 0 0-1.2295 0.23133c-1.5985 3.2071-1.1523 5.1038-1.1523 5.1038l-0.40384 0.13169-0.40164 0.13168-0.40384 0.13169s-0.75711-1.8072-3.9583-3.4661a25.235 25.235 0 0 0-1.1115 0.60795c-0.52324 3.532 0.48316 5.1946 0.48316 5.1946l-0.34239 0.24933-0.34238 0.24713-0.34239 0.24933s-1.2725-1.474-4.8021-2.0665a25.235 25.235 0 0 0-0.90508 0.90509c0.59255 3.5295 2.0665 4.8021 2.0665 4.8021l-0.24933 0.34239-0.24713 0.34238-0.24933 0.34239s-1.6631-1.005-5.1968-0.48088a25.235 25.235 0 0 0-0.60791 1.1115c1.6586 3.1995 3.466 3.956 3.466 3.956l-0.13169 0.40384-0.12905 0.40165-0.13169 0.40383s-1.8966-0.44628-5.1038 1.1524a25.235 25.235 0 0 0-0.23133 1.2295c2.5721 2.5418 4.5299 2.7039 4.5299 2.7039v1.2699s-1.9577 0.16197-4.5299 2.7039a25.235 25.235 0 0 0 0.23133 1.2272c3.2062 1.5975 5.1038 1.1546 5.1038 1.1546l0.13169 0.40384 0.12905 0.39901 0.13169 0.40384s-1.8073 0.75733-3.466 3.9583a25.235 25.235 0 0 0 0.60791 1.1115c3.5324 0.52337 5.1946-0.48087 5.1946-0.48087l0.24933 0.34238 0.24933 0.34019 0.24933 0.34502s-1.474 1.2722-2.0665 4.8021a25.235 25.235 0 0 0 0.9028 0.9028c3.5298-0.59246 4.8045-2.0642 4.8045-2.0642l0.34239 0.24932 0.34019 0.24714 0.34458 0.24932s-1.0066 1.6622-0.48316 5.1946a25.235 25.235 0 0 0 1.1115 0.60796c3.2008-1.6589 3.9583-3.4638 3.9583-3.4638l0.40384 0.12949 0.40164 0.13169 0.40164 0.12905s-0.44422 1.8988 1.1546 5.1061a25.235 25.235 0 0 0 1.2272 0.23133c2.542-2.5722 2.7039-4.5299 2.7039-4.5299h1.2699s0.16198 1.9621 2.713 4.539a25.235 25.235 0 0 0 1.1977-0.1905c1.6294-3.2387 1.175-5.1537 1.175-5.1537l0.40384-0.13169 0.40165-0.13169 0.40384-0.13168s0.7593 1.8189 3.9855 3.4819a25.235 25.235 0 0 0 1.0752-0.54892c0.55019-3.5863-0.47412-5.2694-0.47412-5.2694l0.34239-0.24933 0.34238-0.24713 0.34239-0.24933s1.2837 1.4924 4.8611 2.0778a25.235 25.235 0 0 0 0.85745-0.85742c-0.58548-3.5773-2.0779-4.8611-2.0779-4.8611l0.24932-0.34238 0.24714-0.34239 0.24932-0.34238s1.6837 1.0229 5.2718 0.47179a25.235 25.235 0 0 0 0.54891-1.0752c-1.6628-3.2245-3.4819-3.9833-3.4819-3.9833l0.13168-0.40384 0.12906-0.40165 0.13168-0.40384s1.9151 0.45454 5.1538-1.175a25.235 25.235 0 0 0 0.1905-1.1977c-2.5768-2.551-4.539-2.713-4.539-2.713v-1.2699s1.9621-0.16154 4.539-2.713a25.235 25.235 0 0 0-0.1905-1.1954c-3.2376-1.6284-5.1538-1.1773-5.1538-1.1773l-0.13168-0.40165-0.12906-0.40164-0.13168-0.40384s1.8189-0.75953 3.4819-3.9856a25.235 25.235 0 0 0-0.54891-1.0752c-3.5865-0.55032-5.2694 0.47179-5.2694 0.47179l-0.24933-0.34238-0.24932-0.34019-0.24933-0.34502s1.4925-1.2835 2.0779-4.8611a25.235 25.235 0 0 0-0.85518-0.85746c-3.5794 0.58517-4.8634 2.0778-4.8634 2.0778l-0.34238-0.24933-0.34019-0.24713-0.34458-0.24932s1.0245-1.683 0.47411-5.2694a25.235 25.235 0 0 0-1.0752-0.54892c-3.2259 1.663-3.9855 3.4819-3.9855 3.4819l-0.40384-0.13168-0.40165-0.13169-0.40164-0.12905s0.45239-1.9172-1.1773-5.156a25.235 25.235 0 0 0-1.1977-0.19051zm-3.3481 5.807a19.199 19.199 0 0 1 19.199 19.199 19.199 19.199 0 0 1-19.199 19.2 19.199 19.199 0 0 1-19.199-19.2 19.199 19.199 0 0 1 19.199-19.199z"/>
 </g>
</svg>
